<svg width="44" height="44" viewBox="0 0 44 44" fill="none" xmlns="http://www.w3.org/2000/svg">
<g clip-path="url(#clip0_1402_178)">
<path d="M42.7894 42.7894C41.1753 44.4035 38.5591 44.4035 36.945 42.7894L29.6521 35.4965C26.6539 37.4199 23.1097 38.5659 19.283 38.5659C8.63406 38.5659 0 29.9331 0 19.2829C0 8.63276 8.63406 0 19.283 0C29.9333 0 38.566 8.63259 38.566 19.2829C38.566 23.1083 37.4186 26.6539 35.4965 29.6535L42.7894 36.9464C44.4035 38.5605 44.4035 41.1753 42.7894 42.7894ZM19.283 5.50937C11.6766 5.50937 5.50945 11.6751 5.50945 19.2828C5.50945 26.8905 11.6767 33.0564 19.283 33.0564C26.8906 33.0564 33.0565 26.8905 33.0565 19.2828C33.0565 11.6751 26.8906 5.50937 19.283 5.50937Z" fill="black"/>
</g>
<defs>
<clipPath id="clip0_1402_178">
<rect width="44" height="44" fill="white"/>
</clipPath>
</defs>
</svg>
