<svg width="25" height="25" viewBox="0 0 25 25" fill="none" xmlns="http://www.w3.org/2000/svg">
<path d="M12.5 1.72414C9.64303 1.72733 6.904 2.86367 4.88383 4.88384C2.86365 6.90402 1.72732 9.64304 1.72412 12.5C1.72891 15.3565 2.86576 18.0946 4.88559 20.1144C6.90541 22.1342 9.64352 23.2711 12.5 23.2759C15.3579 23.2759 18.0988 22.1406 20.1197 20.1197C22.1405 18.0988 23.2758 15.3579 23.2758 12.5C23.2758 9.64206 22.1405 6.90118 20.1197 4.88032C18.0988 2.85945 15.3579 1.72414 12.5 1.72414ZM19.0543 18.7181C18.4491 17.4974 17.5148 16.4702 16.3569 15.7522C15.1989 15.0343 13.8633 14.6542 12.5009 14.6549C11.1384 14.6556 9.80323 15.0371 8.64602 15.7563C7.48882 16.4754 6.55561 17.5037 5.95171 18.725C4.34043 17.0539 3.4426 14.8214 3.44826 12.5C3.44826 10.0993 4.40192 7.79699 6.09945 6.09946C7.79698 4.40194 10.0993 3.44828 12.5 3.44828C14.9006 3.44828 17.203 4.40194 18.9005 6.09946C20.598 7.79699 21.5517 10.0993 21.5517 12.5C21.5571 14.8181 20.6616 17.0477 19.0543 18.7181ZM12.5 6.03448C11.7327 6.03448 10.9827 6.262 10.3448 6.68826C9.7068 7.11453 9.20958 7.72039 8.91597 8.42925C8.62235 9.1381 8.54553 9.9181 8.69521 10.6706C8.8449 11.4231 9.21437 12.1143 9.7569 12.6569C10.2994 13.1994 10.9907 13.5689 11.7432 13.7186C12.4957 13.8682 13.2757 13.7914 13.9845 13.4978C14.6934 13.2042 15.2992 12.707 15.7255 12.069C16.1518 11.4311 16.3793 10.681 16.3793 9.91379C16.3793 9.40436 16.279 8.89991 16.084 8.42925C15.889 7.95859 15.6033 7.53093 15.2431 7.17071C14.8828 6.81048 14.4552 6.52473 13.9845 6.32978C13.5139 6.13482 13.0094 6.03448 12.5 6.03448Z" fill="black"/>
</svg>
