<svg width="104" height="19" viewBox="0 0 104 19" fill="none" xmlns="http://www.w3.org/2000/svg">
<path d="M7.448 18.24C5.944 18.24 4.664 17.992 3.608 17.496C2.568 16.984 1.76 16.248 1.184 15.288C0.608 14.312 0.288 13.128 0.224 11.736C0.208 11.08 0.2 10.376 0.2 9.624C0.2 8.872 0.208 8.152 0.224 7.464C0.288 6.088 0.608 4.92 1.184 3.96C1.776 2.984 2.6 2.24 3.656 1.728C4.712 1.216 5.976 0.959999 7.448 0.959999C8.52 0.959999 9.496 1.096 10.376 1.368C11.256 1.64 12.016 2.032 12.656 2.544C13.296 3.056 13.792 3.656 14.144 4.344C14.496 5.032 14.688 5.8 14.72 6.648C14.72 6.792 14.664 6.912 14.552 7.008C14.456 7.104 14.336 7.152 14.192 7.152H11.456C11.264 7.152 11.112 7.104 11 7.008C10.888 6.912 10.8 6.752 10.736 6.528C10.496 5.584 10.096 4.936 9.536 4.584C8.976 4.232 8.28 4.056 7.448 4.056C6.456 4.056 5.672 4.328 5.096 4.872C4.52 5.416 4.208 6.32 4.16 7.584C4.112 8.896 4.112 10.24 4.16 11.616C4.208 12.88 4.52 13.784 5.096 14.328C5.672 14.872 6.456 15.144 7.448 15.144C8.28 15.144 8.976 14.968 9.536 14.616C10.112 14.248 10.512 13.6 10.736 12.672C10.8 12.432 10.888 12.272 11 12.192C11.112 12.096 11.264 12.048 11.456 12.048H14.192C14.336 12.048 14.456 12.096 14.552 12.192C14.664 12.288 14.72 12.408 14.72 12.552C14.688 13.4 14.496 14.168 14.144 14.856C13.792 15.544 13.296 16.144 12.656 16.656C12.016 17.168 11.256 17.56 10.376 17.832C9.496 18.104 8.52 18.24 7.448 18.24ZM20.8246 18.24C19.9766 18.24 19.2166 18.08 18.5446 17.76C17.8726 17.424 17.3366 16.976 16.9366 16.416C16.5366 15.856 16.3366 15.232 16.3366 14.544C16.3366 13.408 16.7926 12.512 17.7046 11.856C18.6326 11.2 19.8486 10.752 21.3526 10.512L24.4966 10.056V9.624C24.4966 9 24.3526 8.52 24.0646 8.184C23.7766 7.848 23.2726 7.68 22.5526 7.68C22.0246 7.68 21.6006 7.784 21.2806 7.992C20.9606 8.2 20.7126 8.472 20.5366 8.808C20.4086 9.016 20.2246 9.12 19.9846 9.12H17.7046C17.5286 9.12 17.3926 9.072 17.2966 8.976C17.2006 8.864 17.1606 8.736 17.1766 8.592C17.1766 8.32 17.2806 8 17.4886 7.632C17.6966 7.264 18.0166 6.904 18.4486 6.552C18.8806 6.184 19.4326 5.88 20.1046 5.64C20.7766 5.4 21.6006 5.28 22.5766 5.28C23.5846 5.28 24.4486 5.4 25.1686 5.64C25.8886 5.88 26.4646 6.216 26.8966 6.648C27.3286 7.08 27.6486 7.584 27.8566 8.16C28.0646 8.72 28.1686 9.328 28.1686 9.984V17.4C28.1686 17.576 28.1126 17.72 28.0006 17.832C27.8886 17.944 27.7446 18 27.5686 18H25.2166C25.0566 18 24.9206 17.944 24.8086 17.832C24.6966 17.72 24.6406 17.576 24.6406 17.4V16.512C24.4326 16.816 24.1526 17.104 23.8006 17.376C23.4486 17.632 23.0246 17.84 22.5286 18C22.0486 18.16 21.4806 18.24 20.8246 18.24ZM21.7846 15.744C22.3126 15.744 22.7846 15.632 23.2006 15.408C23.6166 15.184 23.9446 14.84 24.1846 14.376C24.4246 13.912 24.5446 13.328 24.5446 12.624V12.216L22.3126 12.576C21.4486 12.72 20.8166 12.936 20.4166 13.224C20.0166 13.512 19.8166 13.864 19.8166 14.28C19.8166 14.584 19.9046 14.848 20.0806 15.072C20.2726 15.296 20.5206 15.464 20.8246 15.576C21.1286 15.688 21.4486 15.744 21.7846 15.744ZM31.6505 18C31.4905 18 31.3545 17.944 31.2425 17.832C31.1305 17.72 31.0745 17.576 31.0745 17.4V6.12C31.0745 5.96 31.1305 5.824 31.2425 5.712C31.3545 5.584 31.4905 5.52 31.6505 5.52H34.0025C34.1625 5.52 34.2985 5.584 34.4105 5.712C34.5385 5.824 34.6025 5.96 34.6025 6.12V7.08C35.0025 6.584 35.4905 6.2 36.0665 5.928C36.6585 5.656 37.3385 5.52 38.1065 5.52H39.1385C39.2985 5.52 39.4345 5.576 39.5465 5.688C39.6585 5.8 39.7145 5.944 39.7145 6.12V8.184C39.7145 8.36 39.6585 8.504 39.5465 8.616C39.4345 8.728 39.2985 8.784 39.1385 8.784H37.0265C36.3225 8.784 35.7705 8.984 35.3705 9.384C34.9705 9.768 34.7705 10.32 34.7705 11.04V17.4C34.7705 17.576 34.7145 17.72 34.6025 17.832C34.4905 17.944 34.3465 18 34.1705 18H31.6505ZM46.9316 18.24C45.0916 18.24 43.6276 17.728 42.5396 16.704C41.4676 15.68 40.8996 14.192 40.8356 12.24C40.8356 12.112 40.8356 11.944 40.8356 11.736C40.8356 11.512 40.8356 11.336 40.8356 11.208C40.8996 9.976 41.1796 8.92 41.6756 8.04C42.1716 7.144 42.8676 6.464 43.7636 6C44.6596 5.52 45.7076 5.28 46.9076 5.28C48.2516 5.28 49.3716 5.56 50.2676 6.12C51.1796 6.664 51.8596 7.416 52.3076 8.376C52.7716 9.32 53.0036 10.408 53.0036 11.64V12.192C53.0036 12.352 52.9396 12.488 52.8116 12.6C52.6996 12.712 52.5636 12.768 52.4036 12.768H44.5556C44.5556 12.784 44.5556 12.816 44.5556 12.864C44.5556 12.896 44.5556 12.928 44.5556 12.96C44.5716 13.472 44.6676 13.944 44.8436 14.376C45.0356 14.792 45.2996 15.128 45.6356 15.384C45.9876 15.64 46.4036 15.768 46.8836 15.768C47.2836 15.768 47.6116 15.712 47.8676 15.6C48.1236 15.488 48.3316 15.352 48.4916 15.192C48.6676 15.032 48.7956 14.896 48.8756 14.784C49.0196 14.624 49.1316 14.528 49.2116 14.496C49.3076 14.448 49.4516 14.424 49.6436 14.424H52.1396C52.2996 14.424 52.4276 14.472 52.5236 14.568C52.6356 14.648 52.6836 14.768 52.6676 14.928C52.6516 15.184 52.5156 15.504 52.2596 15.888C52.0196 16.256 51.6596 16.624 51.1796 16.992C50.6996 17.344 50.0996 17.64 49.3796 17.88C48.6756 18.12 47.8596 18.24 46.9316 18.24ZM44.5556 10.584H49.2596V10.536C49.2596 9.96 49.1636 9.464 48.9716 9.048C48.7956 8.616 48.5316 8.28 48.1796 8.04C47.8276 7.8 47.4036 7.68 46.9076 7.68C46.4116 7.68 45.9876 7.8 45.6356 8.04C45.2836 8.28 45.0116 8.616 44.8196 9.048C44.6436 9.464 44.5556 9.96 44.5556 10.536V10.584Z" fill="#2D335A"/>
<path d="M56.2666 18C56.0906 18 55.9466 17.944 55.8346 17.832C55.7226 17.72 55.6666 17.576 55.6666 17.4V1.8C55.6666 1.624 55.7226 1.48 55.8346 1.368C55.9466 1.256 56.0906 1.2 56.2666 1.2H62.8186C64.1146 1.2 65.2346 1.4 66.1786 1.8C67.1386 2.2 67.8826 2.808 68.4106 3.624C68.9546 4.424 69.2266 5.424 69.2266 6.624C69.2266 7.84 68.9546 8.848 68.4106 9.648C67.8826 10.432 67.1386 11.016 66.1786 11.4C65.2346 11.784 64.1146 11.976 62.8186 11.976H59.6026V17.4C59.6026 17.576 59.5466 17.72 59.4346 17.832C59.3226 17.944 59.1786 18 59.0026 18H56.2666ZM59.5306 9H62.6986C63.5146 9 64.1466 8.8 64.5946 8.4C65.0586 8 65.2906 7.4 65.2906 6.6C65.2906 5.896 65.0826 5.32 64.6666 4.872C64.2666 4.424 63.6106 4.2 62.6986 4.2H59.5306V9ZM72.0104 18C71.8344 18 71.6904 17.944 71.5784 17.832C71.4664 17.72 71.4104 17.576 71.4104 17.4V1.56C71.4104 1.384 71.4664 1.24 71.5784 1.128C71.6904 1.016 71.8344 0.959999 72.0104 0.959999H74.4104C74.5704 0.959999 74.7064 1.016 74.8184 1.128C74.9304 1.24 74.9864 1.384 74.9864 1.56V17.4C74.9864 17.576 74.9304 17.72 74.8184 17.832C74.7064 17.944 74.5704 18 74.4104 18H72.0104ZM82.6038 18.24C81.6758 18.24 80.8518 18.032 80.1318 17.616C79.4278 17.184 78.8758 16.568 78.4758 15.768C78.0918 14.952 77.8998 13.968 77.8998 12.816V6.12C77.8998 5.944 77.9558 5.8 78.0678 5.688C78.1798 5.576 78.3158 5.52 78.4758 5.52H81.0198C81.1958 5.52 81.3398 5.576 81.4518 5.688C81.5638 5.8 81.6198 5.944 81.6198 6.12V12.672C81.6198 14.464 82.4038 15.36 83.9718 15.36C84.7238 15.36 85.3158 15.128 85.7478 14.664C86.1958 14.184 86.4198 13.52 86.4198 12.672V6.12C86.4198 5.944 86.4758 5.8 86.5878 5.688C86.6998 5.576 86.8438 5.52 87.0198 5.52H89.5638C89.7238 5.52 89.8598 5.576 89.9718 5.688C90.0838 5.8 90.1398 5.944 90.1398 6.12V17.4C90.1398 17.576 90.0838 17.72 89.9718 17.832C89.8598 17.944 89.7238 18 89.5638 18H87.2118C87.0358 18 86.8918 17.944 86.7798 17.832C86.6678 17.72 86.6118 17.576 86.6118 17.4V16.464C86.1958 17.04 85.6598 17.48 85.0038 17.784C84.3478 18.088 83.5478 18.24 82.6038 18.24ZM98.0804 18.24C97.0884 18.24 96.2324 18.128 95.5124 17.904C94.8084 17.664 94.2324 17.376 93.7844 17.04C93.3524 16.704 93.0244 16.368 92.8004 16.032C92.5924 15.68 92.4804 15.384 92.4644 15.144C92.4484 14.968 92.5044 14.824 92.6324 14.712C92.7604 14.6 92.8884 14.544 93.0164 14.544H95.3444C95.3924 14.544 95.4404 14.552 95.4884 14.568C95.5364 14.584 95.5844 14.624 95.6324 14.688C95.8404 14.832 96.0564 15 96.2804 15.192C96.5044 15.368 96.7604 15.52 97.0484 15.648C97.3524 15.776 97.7284 15.84 98.1764 15.84C98.7044 15.84 99.1524 15.736 99.5204 15.528C99.8884 15.304 100.072 14.992 100.072 14.592C100.072 14.304 99.9844 14.064 99.8084 13.872C99.6484 13.68 99.3364 13.504 98.8724 13.344C98.4084 13.184 97.7204 13.008 96.8084 12.816C95.9444 12.624 95.2084 12.368 94.6004 12.048C93.9924 11.728 93.5364 11.328 93.2324 10.848C92.9284 10.352 92.7764 9.76 92.7764 9.072C92.7764 8.448 92.9684 7.848 93.3524 7.272C93.7524 6.696 94.3364 6.224 95.1044 5.856C95.8724 5.472 96.8324 5.28 97.9844 5.28C98.8644 5.28 99.6324 5.392 100.288 5.616C100.96 5.824 101.52 6.096 101.968 6.432C102.416 6.752 102.752 7.088 102.976 7.44C103.216 7.776 103.344 8.072 103.36 8.328C103.376 8.488 103.328 8.624 103.216 8.736C103.104 8.848 102.976 8.904 102.832 8.904H100.696C100.616 8.904 100.544 8.896 100.48 8.88C100.416 8.848 100.36 8.808 100.312 8.76C100.12 8.632 99.9204 8.488 99.7124 8.328C99.5204 8.152 99.2884 8 99.0164 7.872C98.7444 7.744 98.3924 7.68 97.9604 7.68C97.4324 7.68 97.0244 7.8 96.7364 8.04C96.4644 8.264 96.3284 8.552 96.3284 8.904C96.3284 9.128 96.4004 9.336 96.5444 9.528C96.6884 9.72 96.9844 9.896 97.4324 10.056C97.8804 10.216 98.5604 10.384 99.4724 10.56C100.56 10.752 101.424 11.04 102.064 11.424C102.704 11.808 103.16 12.256 103.432 12.768C103.72 13.264 103.864 13.8 103.864 14.376C103.864 15.128 103.64 15.8 103.192 16.392C102.744 16.968 102.088 17.424 101.224 17.76C100.376 18.08 99.3284 18.24 98.0804 18.24Z" fill="#209493"/>
</svg>
